<!-- <svg width="98" height="27" xmlns="http://www.w3.org/2000/svg" xmlns:xlink="http://www.w3.org/1999/xlink"><defs><path d="M101 0v29l-52.544.001C44.326 35.511 35.598 40 25.5 40 11.417 40 0 31.27 0 20.5S11.417 1 25.5 1c4.542 0 8.807.908 12.5 2.5V0h63z" id="logoA"/></defs><g transform="translate(-2 -1)" fill="none" fill-rule="evenodd"><mask id="logoB" fill="#fff"><use xlink:href="#logoA"/></mask><path d="M48.142 1c4.736 0 6.879 3.234 6.879 5.904v2.068h-4.737V6.904c0-.79-.789-2.144-2.142-2.144-1.654 0-2.368 1.354-2.368 2.144v15.192c0 .79.714 2.144 2.368 2.144 1.353 0 2.142-1.354 2.142-2.144v-2.068h4.737v2.068c0 2.67-2.143 5.904-6.88 5.904C42.956 28 41 24.766 41 22.134V6.904C41 4.234 42.955 1 48.142 1zM19-6c9.389 0 17 7.611 17 17s-7.611 17-17 17S2 20.389 2 11 9.611-6 19-6zm42.256 7.338l3.345 19.48h.075l3.42-19.48h5l-6.052 26.324h-5L56.22 1.338h5.037zm20.706 0l5.413 26.324h-4.699l-.94-6.13h-4.548l-.902 6.13h-4.435l5.413-26.324h4.698zm18.038 0v3.723h-4.849v22.6h-4.699v-22.6h-4.81V1.338H100zM19 4a7 7 0 100 14 7 7 0 000-14zm60.557 4.295h-.113l-1.466 9.439h3.007l-1.428-9.439z" fill="#000" fill-rule="nonzero" mask="url(#logoB)"/></g></svg> -->

<svg width="98" height="50" viewBox="0 0 101 101" fill="none" xmlns="http://www.w3.org/2000/svg">
<path d="M50.4067 100.31C60.8615 100.31 69.3369 91.8067 69.3369 81.317C69.3369 70.8273 60.8615 62.3237 50.4067 62.3237C39.9519 62.3237 31.4766 70.8273 31.4766 81.317C31.4766 91.8067 39.9519 100.31 50.4067 100.31Z" fill="black"/>
<path d="M68.5896 26.1389C64.4744 13.9772 54.1488 12.4758 50.4077 12.4758C37.2389 12.4758 31.4776 23.8117 31.4776 31.469C31.4776 41.0783 39.1843 50.4623 50.4077 50.4623C73.7524 50.4623 85.3499 74.6355 79.5886 90.7009C118.496 61.4228 98.1446 1.21496 50.4077 0.689453C-4.96111 1.21496 -13.7902 66.3025 21.3017 90.776C21.3017 90.4757 13.3705 71.9329 32.3006 56.3179C20.4786 48.8107 10.1531 22.0099 34.3956 10.8242C45.7687 6.16972 63.352 5.26885 78.6159 17.881C90.8868 28.3911 101.063 51.6634 85.3499 75.9868C80.4864 49.2611 56.618 45.8078 49.7343 45.7327C45.2449 45.8078 36.1914 41.829 36.1914 31.1687C36.79 11.8001 60.6584 12.4758 68.5896 26.1389Z" fill="black"/>
</svg>